<svg xmlns="http://www.w3.org/2000/svg" viewBox="0 0 383.28 319.33">
    <g>
        <g>
            <path fill="#8e8e8e"
                  d="M0,165.62Q17.54,126.82,35.07,88c9.47-21,18.87-42,28.38-63C71,8.44,83.82,0,102.05,0q89.61,0,179.24,0c18.08,0,31,8.32,38.39,24.72q31.44,69.42,62.64,139a11.78,11.78,0,0,1,.89,4.68q.07,55.2,0,110.4c-.06,22.83-17,40.06-39.79,40.41-17.84.28-35.68.08-53.51.08q-123.87,0-247.73,0c-17.84,0-30.88-7.61-38.64-23.74-1.64-3.41-2.39-7.26-3.55-10.9Zm362.74-6c-.64-1.59-1.05-2.74-1.55-3.85q-27.82-61.84-55.63-123.7C300.61,21,292.42,15.84,280.33,15.86q-88.71.17-177.4,0c-12.1,0-20.28,5.16-25.23,16.21Q50,94,22.06,155.77c-.5,1.11-.91,2.26-1.55,3.86H66.44c13.16,0,21,5.42,25.59,17.7q7.35,19.59,14.69,39.18c2.12,5.62,4,6.93,10,6.93h149.7c6,0,7.92-1.31,10-6.94,5.1-13.52,10.13-27.06,15.27-40.56,4-10.53,12.35-16.28,23.53-16.3q21.7,0,43.41,0ZM15.91,175.54v4.59q0,48.26,0,96.52c0,16.94,9.77,26.7,26.68,26.7H340.78c16.71,0,26.55-9.79,26.56-26.45q0-48.45,0-96.9v-4.24c-1.66-.09-2.87-.21-4.08-.21q-23.2,0-46.39,0c-6.52,0-8.42,1.38-10.76,7.62q-7.37,19.59-14.72,39.16C287,233.91,279,239.53,266.58,239.53q-75,0-150,0c-12.2,0-20.31-5.63-24.6-17-5-13.39-10-26.81-15.1-40.2-2-5.24-4.22-6.78-9.85-6.8-9.23,0-18.46,0-27.68,0Z"/>
        </g>
    </g>
</svg>