<svg xmlns="http://www.w3.org/2000/svg" viewBox="0 0 757.4 104.73">
    <defs>
        <style>.cls-1{fill:#055f92;}</style>
    </defs>
    <g id="Layer_2">
        <g id="Layer_1-2">
            <path class="cls-1"
                  d="M120.66,81h-24V45.79A21.82,21.82,0,0,0,74.86,24H24.06V0h50.8a45.84,45.84,0,0,1,45.8,45.79Z"/>
            <path class="cls-1"
                  d="M96.6,104.73H45.79A45.84,45.84,0,0,1,0,58.94V23.76H24V58.94A21.82,21.82,0,0,0,45.79,80.73H96.6Z"/>
            <path class="cls-1"
                  d="M167.43,75.5V35.69h15a35.69,35.69,0,0,1,6.06.38,11.83,11.83,0,0,1,4.91,1.86,9.67,9.67,0,0,1,3.19,3.84,13,13,0,0,1-2,14q-3.22,3.51-11.68,3.52H172.7V75.5Zm5.27-20.88H183c3.41,0,5.83-.64,7.26-1.9a6.79,6.79,0,0,0,2.14-5.35,7.19,7.19,0,0,0-1.26-4.28,5.87,5.87,0,0,0-3.33-2.35,22.09,22.09,0,0,0-4.92-.36H172.7Z"/>
            <path class="cls-1" d="M212.66,75.5V35.69h5.27V70.8h19.61v4.7Z"/>
            <path class="cls-1"
                  d="M247.78,75.5l15.29-39.81h5.68l16.3,39.81h-6L274.4,63.44H257.75L253.38,75.5Zm11.49-16.35h13.5l-4.16-11c-1.27-3.35-2.21-6.11-2.82-8.26a50.18,50.18,0,0,1-2.15,7.6Z"/>
            <path class="cls-1" d="M303.6,75.5V40.38H290.48V35.69H322v4.69H308.87V75.5Z"/>
            <path class="cls-1" d="M336.06,75.5V35.69h26.86v4.69H341.33V52.72H360v4.69H341.33V75.5Z"/>
            <path class="cls-1"
                  d="M376.51,56.11q0-9.91,5.33-15.52A18.07,18.07,0,0,1,395.58,35a19.13,19.13,0,0,1,9.94,2.63A17.26,17.26,0,0,1,412.27,45a23.85,23.85,0,0,1,2.32,10.69,23.6,23.6,0,0,1-2.44,10.84,16.71,16.71,0,0,1-6.93,7.23,19.78,19.78,0,0,1-9.67,2.46,18.82,18.82,0,0,1-10.05-2.71,17.51,17.51,0,0,1-6.71-7.42A22.46,22.46,0,0,1,376.51,56.11Zm5.43.08q0,7.2,3.87,11.34a13.51,13.51,0,0,0,19.5,0q3.85-4.18,3.85-11.87a20.35,20.35,0,0,0-1.65-8.49,12.6,12.6,0,0,0-4.8-5.62,13.05,13.05,0,0,0-7.11-2A13.46,13.46,0,0,0,386,43.36Q381.95,47.2,381.94,56.19Z"/>
            <path class="cls-1"
                  d="M429.81,75.5V35.69h17.65a23.34,23.34,0,0,1,8.09,1.07A8.81,8.81,0,0,1,460,40.55a11.25,11.25,0,0,1,1.66,6,10,10,0,0,1-2.75,7.14q-2.73,2.91-8.47,3.7a14,14,0,0,1,3.18,2,27.39,27.39,0,0,1,4.37,5.3L464.9,75.5h-6.63L453,67.22q-2.31-3.59-3.8-5.49a12.22,12.22,0,0,0-2.68-2.66,7.81,7.81,0,0,0-2.4-1.06,16.55,16.55,0,0,0-2.94-.19h-6.11V75.5Zm5.26-22.24H446.4a16.93,16.93,0,0,0,5.65-.75,6,6,0,0,0,3.1-2.39,6.48,6.48,0,0,0,1.05-3.57,5.91,5.91,0,0,0-2.05-4.64c-1.36-1.22-3.52-1.82-6.47-1.82H435.07Z"/>
            <path class="cls-1"
                  d="M478.07,75.5V35.69H486l9.43,28.19c.87,2.62,1.5,4.59,1.9,5.89.45-1.45,1.16-3.57,2.12-6.38L509,35.69h7.09V75.5H511V42.18L499.42,75.5h-4.75L483.15,41.61V75.5Z"/>
            <path class="cls-1"
                  d="M549.27,75.5l15.29-39.81h5.68l16.3,39.81h-6l-4.64-12.06H559.24L554.87,75.5Zm11.49-16.35h13.5l-4.16-11c-1.26-3.35-2.21-6.11-2.82-8.26a50.18,50.18,0,0,1-2.15,7.6Z"/>
            <path class="cls-1"
                  d="M599.09,75.5V35.69h13.72a33.24,33.24,0,0,1,7.08.57,13.33,13.33,0,0,1,5.84,2.85,16.09,16.09,0,0,1,4.72,6.8A26.75,26.75,0,0,1,632,55.38a27.72,27.72,0,0,1-1.06,8,19.54,19.54,0,0,1-2.72,5.8,14.4,14.4,0,0,1-3.62,3.61,14.74,14.74,0,0,1-4.76,2,26.64,26.64,0,0,1-6.39.68Zm5.27-4.7h8.5a20.58,20.58,0,0,0,6.18-.73A9,9,0,0,0,622.61,68a12.59,12.59,0,0,0,2.92-5,24.55,24.55,0,0,0,1.05-7.67q0-6.25-2.06-9.61a10.28,10.28,0,0,0-5-4.49,20.64,20.64,0,0,0-6.82-.82h-8.36Z"/>
            <path class="cls-1"
                  d="M647.44,75.5V35.69h7.93l9.43,28.19c.87,2.62,1.5,4.59,1.9,5.89.45-1.45,1.16-3.57,2.12-6.38l9.53-27.7h7.09V75.5h-5.08V42.18L668.79,75.5H664L652.52,41.61V75.5Z"/>
            <path class="cls-1" d="M703.18,75.5V35.69h5.27V75.5Z"/>
            <path class="cls-1" d="M726,75.5V35.69h5.4L752.34,67V35.69h5.06V75.5H752L731.08,44.21V75.5Z"/>
        </g>
    </g>
</svg>