<svg xmlns="http://www.w3.org/2000/svg" viewBox="0 0 269.52 269.55">
    <g>
        <g>
            <path fill="#8e8e8e"
                  d="M213.22,190.65c16.94,16.93,33.68,33.7,50.47,50.43,4.56,4.53,6.94,9.7,5.33,16.19a15.82,15.82,0,0,1-25.75,8.44c-2.29-1.92-4.32-4.15-6.44-6.26L191.29,214a8.33,8.33,0,0,0-.85-.6c-32.17,23-67.52,30.07-105.82,19-27.79-8.05-49.63-24.7-65.39-48.9-31.94-49-23.3-114.17,20-152.88a118.64,118.64,0,0,1,155-3.34C241.2,65.72,253.27,137.66,213.22,190.65Zm-94.45,14.7A86.66,86.66,0,1,0,32,118.6,86.42,86.42,0,0,0,118.77,205.35Z"/>
        </g>
    </g>
</svg>